<svg xmlns="http://www.w3.org/2000/svg" viewBox="0 0 1832 340.6">
  <g transform="matrix(0.1,0,0,-0.1,-171,1227.6)" fill="#E8E4DF" stroke="none">
    <path d="m 19575,12266 c -50,-19 -112,-87 -121,-133 -24,-129 50,-238 170,-250 75,-8 137,23 177,85 58,91 31,228 -55,282 -45,27 -120,34 -171,16 z M 6000,11605 c -8,-2 -48,-9 -89,-15 -352,-58 -617,-300 -713,-651 -20,-74 -23,-106 -22,-264 0,-169 2,-185 28,-265 130,-397 465,-633 901,-633 275,-1 522,113 691,318 84,102 146,219 185,350 26,88 37,324 20,434 -49,315 -270,570 -584,676 -123,41 -333,66 -417,50 z m 240,-122 c 189,-88 329,-318 401,-658 16,-76 21,-136 22,-250 0,-131 -3,-162 -26,-248 -53,-195 -154,-347 -272,-410 -71,-37 -116,-47 -213,-47 -84,1 -106,4 -163,29 -221,94 -383,340 -450,681 -24,127 -26,330 -3,433 58,267 170,415 366,488 43,16 73,19 163,16 98,-3 117,-7 175,-34 z m 3330,112 c -376,-64 -630,-295 -726,-660 -23,-85 -27,-121 -27,-240 0,-200 33,-332 124,-491 118,-206 345,-362 597,-410 112,-22 303,-22 400,0 298,66 547,276 657,555 13,34 34,104 46,156 19,83 21,114 16,238 -8,200 -45,324 -145,481 -69,108 -198,222 -327,288 -155,80 -423,116 -615,83 z m 302,-104 c 119,-46 218,-148 301,-308 92,-179 156,-468 143,-647 -25,-328 -154,-556 -365,-642 -79,-32 -210,-34 -294,-5 -356,123 -592,746 -455,1206 58,199 184,344 349,406 75,27 238,22 321,-10 z m 1808,104 c -223,-36 -413,-143 -545,-308 -95,-119 -136,-205 -176,-372 -32,-135 -30,-343 5,-479 88,-341 335,-578 668,-641 295,-56 548,36 701,255 l 32,45 3,-65 c 2,-36 2,-193 0,-350 -3,-256 -5,-289 -22,-323 -25,-50 -73,-86 -127,-95 -40,-7 -44,-10 -44,-37 v -30 l 95,-6 c 149,-10 223,-33 426,-129 303,-145 467,-190 686,-190 139,0 232,20 345,75 104,51 198,136 265,239 l 39,60 -23,18 c -13,10 -25,18 -28,17 -3,0 -27,-31 -55,-69 -90,-125 -206,-194 -375,-225 -255,-47 -599,52 -733,211 -46,54 -88,136 -102,198 -11,49 -15,278 -20,1131 -4,589 -8,1071 -10,1073 -7,8 -62,10 -73,3 -7,-4 -37,-77 -67,-162 -30,-85 -57,-161 -61,-169 -4,-12 -8,-12 -20,5 -140,195 -310,295 -554,325 -103,12 -122,12 -230,-5 z m 272,-97 c 193,-66 321,-220 390,-467 18,-67 21,-112 25,-366 5,-248 3,-300 -11,-355 -44,-169 -150,-311 -284,-378 -74,-36 -79,-37 -186,-37 -101,0 -117,3 -171,28 -131,61 -221,156 -305,322 -57,111 -85,202 -111,349 -64,369 52,730 279,863 110,65 259,81 374,41 z m 3758,101 c -386,-40 -680,-327 -741,-724 -7,-44 -12,-129 -12,-190 2,-461 262,-800 683,-891 98,-21 273,-20 370,1 202,45 385,182 502,376 37,61 118,256 118,284 0,10 -11,15 -32,15 -31,0 -35,-4 -56,-57 -65,-159 -174,-289 -300,-360 -171,-96 -372,-99 -552,-8 -196,99 -343,270 -424,494 -46,127 -67,299 -50,404 l 7,37 h 668 c 387,0 669,4 669,9 0,5 -9,40 -21,77 -29,94 -84,202 -136,268 -107,138 -305,244 -485,261 -34,3 -76,7 -93,9 -16,2 -68,-1 -115,-5 z m 154,-94 c 113,-30 209,-106 258,-205 32,-64 72,-205 63,-220 -4,-7 -166,-10 -472,-10 l -465,1 5,36 c 9,53 68,171 114,226 121,146 326,216 497,172 z m -11100,81 c -59,-15 -151,-64 -211,-113 -50,-41 -109,-118 -157,-204 l -36,-64 v 193 192 h -23 c -13,0 -76,-14 -141,-30 -120,-31 -260,-62 -328,-74 -34,-6 -38,-10 -38,-36 0,-25 4,-29 40,-35 57,-10 118,-58 143,-113 22,-46 22,-57 25,-635 2,-398 -1,-606 -8,-641 -14,-69 -60,-120 -121,-136 -68,-17 -69,-18 -69,-45 0,-14 6,-27 13,-30 6,-2 175,-5 375,-7 l 362,-4 v 32 c 0,33 -13,44 -53,44 -44,0 -107,41 -135,88 l -27,47 -3,472 c -2,396 0,482 13,538 38,164 139,308 237,339 65,20 95,13 179,-43 51,-34 70,-41 109,-41 66,0 93,12 126,55 21,28 29,51 32,93 5,69 -21,114 -81,145 -48,25 -154,31 -223,13 z m 13460,-1 c -207,-45 -379,-164 -473,-329 -66,-115 -69,-111 83,-111 h 128 l 22,76 c 39,135 99,210 216,267 48,24 67,27 150,27 88,0 99,-2 150,-31 32,-18 71,-51 92,-80 57,-74 72,-135 73,-294 v -135 l -52,-31 c -58,-34 -205,-99 -383,-168 -284,-110 -405,-174 -505,-268 -98,-91 -148,-206 -146,-336 3,-202 109,-329 316,-378 178,-42 388,10 540,133 67,55 159,170 202,253 l 28,55 12,-204 c 6,-111 15,-207 20,-212 4,-4 119,-9 253,-9 l 245,-1 3,29 c 3,27 0,30 -35,37 -57,10 -108,43 -131,84 -35,62 -42,178 -42,706 0,318 -4,523 -11,561 -14,78 -62,166 -124,227 -72,71 -171,117 -295,136 -88,15 -262,12 -336,-4 z m 446,-918 c 0,-230 -2,-244 -62,-377 -111,-246 -387,-374 -588,-272 -100,50 -146,140 -137,264 12,176 145,303 469,447 26,12 49,21 52,21 13,0 236,112 241,120 20,32 25,-8 25,-203 z m 1095,916 c -110,-32 -348,-91 -395,-98 -46,-6 -50,-9 -50,-34 0,-24 5,-29 48,-40 69,-17 117,-60 139,-124 17,-48 18,-97 18,-662 0,-468 -3,-618 -13,-646 -17,-49 -63,-91 -109,-98 -34,-6 -38,-10 -41,-39 l -3,-32 h 283 c 156,0 307,-3 336,-6 l 52,-7 v 36 c 0,32 -3,36 -32,43 -84,18 -128,61 -147,144 -7,29 -11,323 -11,813 0,607 -3,767 -12,766 -7,0 -35,-7 -63,-16 z m -17644,-13 c -52,-15 -282,-66 -388,-86 -18,-3 -23,-11 -23,-33 0,-26 4,-29 43,-35 57,-9 117,-52 147,-106 l 25,-45 V 10175 9085 l -24,-41 c -26,-46 -75,-78 -134,-88 -35,-7 -38,-9 -35,-37 l 3,-30 373,-2 373,-2 -3,35 c -2,19 -5,34 -8,33 -3,-1 -27,3 -53,8 -67,12 -105,43 -136,108 l -26,56 -3,443 c -2,243 1,442 5,442 5,0 29,-21 53,-46 131,-133 302,-192 531,-181 132,6 240,31 346,82 243,115 385,297 464,597 30,112 33,344 5,462 -64,276 -214,480 -431,589 -125,62 -171,72 -350,72 -150,0 -165,-2 -240,-28 -158,-56 -284,-157 -358,-288 l -34,-60 -6,98 c -4,54 -7,140 -7,191 0,107 3,104 -109,72 z m 716,-146 c 87,-20 184,-74 249,-139 222,-221 309,-688 191,-1020 -47,-133 -158,-276 -259,-334 -252,-143 -569,-30 -709,254 -57,116 -61,155 -56,509 3,278 6,317 24,372 75,227 245,370 445,373 26,1 77,-6 115,-15 z m 4163,129 c 0,-28 4,-33 23,-33 48,0 121,-36 165,-80 51,-52 73,-101 385,-825 49,-115 123,-284 163,-373 41,-90 74,-166 74,-168 0,-2 32,-69 70,-149 81,-168 94,-177 135,-95 14,27 34,73 46,102 11,29 67,161 124,293 57,132 143,332 190,445 91,213 96,226 140,325 15,33 36,83 47,110 46,118 129,273 173,323 46,51 108,92 140,92 10,0 15,10 15,33 v 32 l -262,-2 -263,-2 v -27 c 0,-23 6,-29 35,-37 108,-28 155,-137 114,-263 -9,-27 -59,-150 -111,-274 -239,-569 -313,-748 -313,-760 0,-14 -20,-12 -24,3 -28,90 -203,544 -366,947 -35,85 -65,174 -68,199 -9,81 35,130 137,152 46,10 51,13 51,37 v 27 h -410 -410 z m 6380,11 c -152,-39 -320,-74 -350,-74 -20,0 -31,-6 -35,-20 -9,-28 -1,-36 48,-48 23,-6 61,-27 84,-47 71,-61 71,-61 76,-645 4,-445 6,-523 21,-575 56,-199 182,-319 378,-359 266,-55 519,32 660,225 l 43,60 7,-127 c 4,-70 11,-131 15,-135 4,-4 126,-9 271,-11 l 262,-3 v 36 c 0,36 -1,37 -44,41 -63,8 -117,37 -149,83 -22,33 -30,58 -37,130 -5,50 -10,407 -10,794 v 703 l -27,-5 c -16,-2 -102,-24 -193,-47 -91,-23 -194,-48 -230,-54 -59,-11 -65,-15 -65,-36 0,-20 7,-26 39,-33 51,-13 121,-80 135,-132 7,-27 11,-210 11,-546 v -507 l -39,-78 c -51,-101 -121,-174 -209,-216 -59,-28 -77,-32 -152,-32 -71,-1 -94,4 -140,25 -96,46 -168,138 -201,260 -9,32 -14,232 -16,722 l -4,677 -27,-1 c -15,-1 -70,-12 -122,-25 z m 3630,-1395 c -110,-44 -160,-170 -109,-276 33,-68 78,-97 159,-101 110,-7 174,38 201,141 24,88 -23,191 -105,228 -44,20 -106,24 -146,8 z"/>
  </g>
</svg>